<svg baseProfile="full" height="64" version="1.1" viewBox="0 0 64 64" width="64" xmlns="http://www.w3.org/2000/svg" xmlns:ev="http://www.w3.org/2001/xml-events" xmlns:xlink="http://www.w3.org/1999/xlink"><defs><linearGradient gradientUnits="userSpaceOnUse" id="g" x1="26.88" x2="37.12" y1="60.8" y2="3.2"><stop offset="0.0" stop-color="#0A5E2E" /><stop offset="0.32" stop-color="#0F8038" /><stop offset="0.6" stop-color="#17A850" /><stop offset="0.83" stop-color="#34C46E" /><stop offset="1.0" stop-color="#78E8B0" /></linearGradient></defs><rect fill="url(#g)" height="21.179344557350596" rx="0.43604532912192395" width="1.3081359873657732" x="10.358996153411287" y="27.877303897095636" /><rect fill="url(#g)" height="21.179344557350596" rx="0.43604532912192395" width="2.6162719747315464" x="14.283404115508603" y="27.877303897095636" /><rect fill="url(#g)" height="21.179344557350596" rx="0.43604532912192395" width="3.924407962097316" x="18.20781207760592" y="27.877303897095636" /><rect fill="url(#g)" height="21.179344557350596" rx="0.43604532912192395" width="1.3081359873657732" x="23.440356027069008" y="27.877303897095636" /><rect fill="url(#g)" height="21.179344557350596" rx="0.43604532912192395" width="1.3081359873657732" x="27.36476398916632" y="27.877303897095636" /><rect fill="url(#g)" height="21.179344557350596" rx="0.43604532912192395" width="2.6162719747315464" x="29.981035963897867" y="27.877303897095636" /><rect fill="url(#g)" height="21.179344557350596" rx="0.43604532912192395" width="1.3081359873657732" x="33.90544392599518" y="27.877303897095636" /><rect fill="url(#g)" height="21.179344557350596" rx="0.43604532912192395" width="1.3081359873657732" x="37.82985188809249" y="27.877303897095636" /><rect fill="url(#g)" height="21.179344557350596" rx="0.43604532912192395" width="2.6162719747315464" x="40.44612386282404" y="27.877303897095636" /><rect fill="url(#g)" height="21.179344557350596" rx="0.43604532912192395" width="2.6162719747315464" x="45.678667812287124" y="27.877303897095636" /><rect fill="url(#g)" height="21.179344557350596" rx="0.43604532912192395" width="1.308135987365766" x="49.60307577438444" y="27.877303897095636" /><rect fill="url(#g)" height="21.179344557350596" rx="0.43604532912192395" width="2.6162719747315464" x="52.21934774911599" y="27.877303897095636" /><path d="M16.900,29.746L16.900,29.435L16.900,29.123L16.900,28.812L16.900,28.500L16.900,28.189L16.900,27.877L16.894,27.600L16.877,27.324L16.851,27.047L16.817,26.770L16.776,26.493L16.730,26.216L16.680,25.939L16.627,25.662L16.573,25.386L16.518,25.109L16.465,24.832L16.415,24.555L16.369,24.278L16.328,24.001L16.294,23.724L16.268,23.448L16.251,23.171L16.246,22.892L16.244,22.615L16.237,22.340L16.227,22.069L16.213,21.802L16.194,21.540L16.172,21.281L16.145,21.027L16.114,20.777L16.079,20.531L16.040,20.289L15.996,20.051L15.948,19.817L15.896,19.588L15.839,19.363L15.778,19.141L15.713,18.924L15.643,18.711L15.568,18.502L15.489,18.298L15.406,18.097L15.318,17.901L15.230,17.717L15.154,17.500L15.115,17.264L15.107,17.012L15.126,16.746L15.168,16.467L15.226,16.179L15.297,15.884L15.374,15.583L15.453,15.281L15.528,14.979L15.594,14.680L15.644,14.389L15.673,14.107L15.675,13.838L15.644,13.586L15.575,13.355L15.471,13.142L15.359,12.934L15.239,12.730L15.112,12.529L14.979,12.333L14.838,12.141L14.690,11.953L14.536,11.769L14.374,11.589L14.206,11.414L14.032,11.243L13.850,11.076L13.663,10.913L13.469,10.754L13.270,10.600L13.065,10.449L12.854,10.303L12.638,10.161L12.416,10.022L12.190,9.888L11.959,9.757L11.724,9.629L11.484,9.506L11.241,9.385L10.993,9.268L10.742,9.155L10.488,9.044L10.231,8.937L9.971,8.832L9.708,8.730L9.443,8.632L9.175,8.535L9.175,8.535L9.167,8.818L9.164,9.095L9.167,9.368L9.174,9.636L9.187,9.900L9.205,10.160L9.227,10.415L9.254,10.666L9.285,10.914L9.320,11.158L9.360,11.399L9.403,11.636L9.450,11.871L9.501,12.102L9.555,12.331L9.612,12.557L9.673,12.781L9.736,13.002L9.802,13.222L9.870,13.439L9.942,13.654L10.015,13.868L10.091,14.080L10.169,14.290L10.249,14.499L10.332,14.706L10.416,14.911L10.503,15.115L10.592,15.318L10.684,15.519L10.777,15.718L10.875,15.916L10.998,16.099L11.151,16.267L11.328,16.422L11.528,16.566L11.745,16.701L11.976,16.830L12.216,16.955L12.462,17.078L12.709,17.202L12.953,17.329L13.187,17.461L13.409,17.600L13.611,17.751L13.790,17.913L13.939,18.091L14.052,18.287L14.132,18.453L14.205,18.616L14.275,18.784L14.342,18.957L14.405,19.134L14.465,19.317L14.521,19.504L14.574,19.696L14.623,19.893L14.669,20.094L14.712,20.301L14.751,20.512L14.786,20.728L14.817,20.950L14.845,21.176L14.870,21.407L14.890,21.642L14.907,21.883L14.920,22.129L14.930,22.379L14.936,22.634L14.937,22.896L14.932,23.171L14.915,23.448L14.889,23.724L14.855,24.001L14.814,24.278L14.768,24.555L14.718,24.832L14.665,25.109L14.610,25.386L14.556,25.662L14.503,25.939L14.453,26.216L14.407,26.493L14.366,26.770L14.332,27.047L14.306,27.324L14.289,27.600L14.283,27.877L14.283,28.189L14.283,28.500L14.283,28.812L14.283,29.123L14.283,29.435L14.283,29.746Z M14.442,17.594L14.363,17.379L14.277,17.168L14.191,16.957L14.107,16.745L14.024,16.532L13.941,16.319L13.860,16.105L13.778,15.891L13.695,15.677L13.611,15.464L13.518,15.255L13.418,15.050L13.316,14.845L13.213,14.642L13.109,14.439L13.003,14.236L12.896,14.035L12.787,13.834L12.677,13.634L12.565,13.434L12.452,13.236L12.338,13.038L12.222,12.841L12.105,12.644L11.985,12.449L11.859,12.258L11.732,12.068L11.603,11.878L11.472,11.690L11.340,11.502L11.207,11.316L11.072,11.130L10.937,10.944L10.800,10.760L10.663,10.575L10.525,10.392L10.387,10.208L10.248,10.025L10.110,9.842L9.971,9.659L9.831,9.476L9.686,9.297L9.686,9.297L9.794,9.501L9.906,9.701L10.017,9.902L10.127,10.104L10.235,10.305L10.343,10.507L10.450,10.710L10.556,10.913L10.662,11.115L10.768,11.318L10.873,11.521L10.978,11.723L11.083,11.926L11.189,12.128L11.294,12.329L11.400,12.531L11.507,12.732L11.617,12.930L11.730,13.127L11.843,13.324L11.955,13.521L12.068,13.717L12.181,13.914L12.294,14.110L12.408,14.307L12.521,14.503L12.635,14.699L12.748,14.895L12.863,15.091L12.977,15.287L13.091,15.482L13.211,15.675L13.339,15.864L13.467,16.053L13.594,16.242L13.721,16.432L13.845,16.623L13.968,16.816L14.087,17.009L14.205,17.204L14.320,17.400L14.442,17.594Z M14.032,16.154L14.060,16.004L14.090,15.864L14.125,15.731L14.163,15.606L14.205,15.487L14.252,15.376L14.303,15.271L14.359,15.173L14.419,15.082L14.484,14.996L14.555,14.918L14.630,14.845L14.712,14.780L14.800,14.721L14.800,14.721L14.699,14.757L14.601,14.802L14.506,14.857L14.413,14.921L14.323,14.994L14.236,15.077L14.153,15.169L14.073,15.270L13.997,15.380L13.925,15.499L13.858,15.627L13.794,15.764L13.735,15.909L13.681,16.059Z M12.973,14.868L12.751,14.808L12.531,14.758L12.319,14.719L12.113,14.693L11.914,14.678L11.723,14.676L11.539,14.685L11.362,14.706L11.193,14.738L11.032,14.782L10.880,14.838L10.736,14.904L10.601,14.981L10.474,15.068L10.474,15.068L10.614,15.008L10.759,14.960L10.907,14.925L11.058,14.901L11.214,14.888L11.374,14.887L11.538,14.896L11.707,14.917L11.881,14.948L12.060,14.991L12.245,15.044L12.434,15.107L12.630,15.182L12.834,15.269Z M12.703,13.520L12.737,13.305L12.776,13.103L12.821,12.912L12.873,12.731L12.930,12.560L12.994,12.399L13.064,12.248L13.141,12.106L13.225,11.973L13.316,11.850L13.415,11.736L13.521,11.631L13.636,11.535L13.759,11.449L13.759,11.449L13.620,11.509L13.485,11.582L13.355,11.667L13.230,11.765L13.109,11.876L12.994,12.000L12.885,12.136L12.781,12.284L12.683,12.445L12.592,12.619L12.507,12.804L12.428,13.001L12.356,13.210L12.291,13.426Z M11.532,12.286L11.334,12.242L11.139,12.208L10.950,12.183L10.768,12.169L10.592,12.165L10.423,12.171L10.261,12.187L10.107,12.214L9.960,12.250L9.820,12.297L9.689,12.352L9.565,12.417L9.450,12.491L9.343,12.574L9.343,12.574L9.465,12.518L9.590,12.473L9.719,12.438L9.851,12.414L9.987,12.399L10.126,12.394L10.270,12.399L10.417,12.413L10.570,12.436L10.727,12.469L10.889,12.510L11.056,12.561L11.228,12.621L11.409,12.692Z" fill="url(#g)" fill-rule="evenodd" /><path d="M32.597,29.746L32.597,29.435L32.597,29.123L32.597,28.812L32.597,28.500L32.597,28.189L32.597,27.877L32.591,27.600L32.575,27.324L32.549,27.047L32.515,26.770L32.474,26.493L32.428,26.216L32.377,25.939L32.325,25.662L32.270,25.386L32.216,25.109L32.163,24.832L32.113,24.555L32.067,24.278L32.026,24.001L31.992,23.724L31.966,23.448L31.949,23.171L31.943,22.895L31.944,22.492L31.946,22.096L31.950,21.707L31.956,21.324L31.963,20.947L31.972,20.577L31.983,20.213L31.995,19.855L32.008,19.503L32.023,19.158L32.040,18.819L32.059,18.487L32.078,18.161L32.100,17.841L32.123,17.528L32.148,17.221L32.174,16.921L32.202,16.626L32.231,16.339L32.262,16.057L32.295,15.783L32.329,15.512L32.397,15.234L32.515,14.963L32.676,14.698L32.876,14.438L33.108,14.184L33.364,13.934L33.639,13.688L33.926,13.444L34.216,13.202L34.504,12.961L34.780,12.719L35.038,12.475L35.269,12.228L35.465,11.976L35.619,11.718L35.722,11.452L35.780,11.180L35.827,10.905L35.866,10.629L35.898,10.352L35.921,10.073L35.937,9.793L35.945,9.512L35.945,9.228L35.938,8.943L35.923,8.657L35.900,8.369L35.870,8.079L35.833,7.787L35.789,7.493L35.738,7.198L35.680,6.901L35.616,6.602L35.546,6.302L35.471,5.999L35.389,5.695L35.303,5.390L35.211,5.082L35.115,4.773L35.015,4.462L34.910,4.150L34.802,3.836L34.690,3.520L34.574,3.203L34.456,2.885L34.335,2.564L34.211,2.243L34.085,1.920L34.085,1.920L33.834,2.157L33.592,2.397L33.359,2.640L33.135,2.885L32.920,3.133L32.714,3.383L32.516,3.636L32.326,3.891L32.144,4.148L31.969,4.407L31.801,4.669L31.641,4.932L31.487,5.196L31.340,5.463L31.199,5.731L31.064,6.000L30.935,6.271L30.811,6.543L30.692,6.817L30.579,7.091L30.470,7.367L30.366,7.644L30.267,7.922L30.173,8.201L30.083,8.481L29.997,8.762L29.916,9.043L29.839,9.326L29.766,9.609L29.698,9.893L29.635,10.178L29.578,10.464L29.557,10.756L29.578,11.054L29.634,11.357L29.722,11.665L29.834,11.976L29.966,12.289L30.113,12.604L30.267,12.918L30.424,13.233L30.577,13.545L30.719,13.856L30.845,14.164L30.946,14.467L31.016,14.766L31.047,15.060L31.032,15.346L30.996,15.624L30.963,15.909L30.931,16.201L30.900,16.498L30.871,16.802L30.844,17.112L30.819,17.427L30.795,17.749L30.773,18.077L30.753,18.411L30.734,18.751L30.717,19.097L30.701,19.449L30.687,19.808L30.675,20.172L30.664,20.542L30.655,20.919L30.648,21.302L30.642,21.691L30.638,22.086L30.636,22.487L30.635,22.893L30.629,23.171L30.613,23.448L30.587,23.724L30.553,24.001L30.512,24.278L30.466,24.555L30.415,24.832L30.362,25.109L30.308,25.386L30.254,25.662L30.201,25.939L30.151,26.216L30.104,26.493L30.064,26.770L30.029,27.047L30.003,27.324L29.987,27.600L29.981,27.877L29.981,28.189L29.981,28.500L29.981,28.812L29.981,29.123L29.981,29.435L29.981,29.746Z M31.753,14.863L31.816,14.583L31.872,14.303L31.930,14.022L31.992,13.743L32.057,13.464L32.125,13.186L32.196,12.908L32.268,12.630L32.330,12.351L32.383,12.071L32.436,11.790L32.488,11.510L32.540,11.229L32.592,10.949L32.643,10.668L32.694,10.388L32.745,10.107L32.796,9.827L32.846,9.546L32.895,9.265L32.945,8.984L32.994,8.703L33.043,8.422L33.092,8.141L33.140,7.860L33.188,7.578L33.236,7.297L33.284,7.015L33.331,6.734L33.374,6.451L33.411,6.167L33.447,5.883L33.484,5.599L33.520,5.315L33.557,5.030L33.595,4.746L33.633,4.461L33.672,4.177L33.712,3.893L33.754,3.609L33.796,3.325L33.832,3.039L33.832,3.039L33.745,3.314L33.666,3.590L33.587,3.866L33.507,4.142L33.428,4.418L33.349,4.695L33.270,4.971L33.192,5.248L33.115,5.525L33.039,5.802L32.964,6.079L32.890,6.357L32.824,6.636L32.764,6.916L32.705,7.197L32.647,7.477L32.591,7.758L32.536,8.040L32.483,8.321L32.431,8.603L32.381,8.885L32.332,9.167L32.284,9.450L32.238,9.732L32.194,10.015L32.151,10.298L32.109,10.581L32.069,10.865L32.031,11.149L31.994,11.432L31.959,11.716L31.925,12.001L31.893,12.285L31.871,12.571L31.859,12.858L31.848,13.146L31.835,13.433L31.821,13.719L31.805,14.005L31.786,14.291L31.766,14.576L31.753,14.863Z M32.323,13.068L32.448,12.947L32.569,12.837L32.689,12.738L32.807,12.647L32.925,12.566L33.042,12.494L33.159,12.431L33.275,12.377L33.392,12.332L33.509,12.297L33.626,12.271L33.744,12.254L33.863,12.247L33.983,12.251L33.983,12.251L33.866,12.218L33.746,12.195L33.621,12.182L33.493,12.179L33.361,12.187L33.226,12.206L33.088,12.236L32.947,12.277L32.804,12.329L32.658,12.391L32.511,12.464L32.362,12.549L32.211,12.643L32.061,12.746Z M32.220,11.034L32.060,10.820L31.896,10.618L31.730,10.432L31.561,10.262L31.391,10.107L31.218,9.969L31.044,9.846L30.869,9.739L30.692,9.648L30.515,9.574L30.336,9.515L30.158,9.473L29.980,9.446L29.801,9.434L29.801,9.434L29.974,9.475L30.142,9.531L30.305,9.600L30.463,9.683L30.618,9.780L30.768,9.890L30.916,10.014L31.059,10.151L31.200,10.302L31.338,10.466L31.473,10.645L31.606,10.837L31.737,11.044L31.867,11.267Z M32.980,9.425L33.172,9.258L33.359,9.108L33.543,8.971L33.725,8.848L33.905,8.739L34.084,8.643L34.261,8.561L34.437,8.493L34.612,8.438L34.786,8.397L34.960,8.370L35.133,8.357L35.307,8.358L35.480,8.374L35.480,8.374L35.311,8.328L35.136,8.296L34.957,8.279L34.773,8.276L34.584,8.289L34.391,8.317L34.194,8.360L33.993,8.419L33.788,8.493L33.580,8.582L33.369,8.687L33.155,8.807L32.938,8.942L32.722,9.090Z M32.886,7.376L32.749,7.186L32.608,7.005L32.464,6.839L32.319,6.686L32.171,6.547L32.021,6.422L31.869,6.311L31.716,6.214L31.562,6.131L31.407,6.063L31.251,6.009L31.094,5.969L30.938,5.943L30.782,5.931L30.782,5.931L30.931,5.973L31.076,6.027L31.217,6.093L31.352,6.171L31.484,6.261L31.612,6.362L31.736,6.475L31.857,6.600L31.975,6.736L32.090,6.884L32.202,7.044L32.312,7.216L32.419,7.401L32.526,7.600Z M33.536,6.047L33.672,5.929L33.803,5.822L33.932,5.726L34.060,5.639L34.186,5.562L34.311,5.493L34.435,5.435L34.559,5.386L34.681,5.346L34.804,5.316L34.927,5.295L35.049,5.284L35.173,5.284L35.297,5.294L35.297,5.294L35.178,5.254L35.054,5.224L34.926,5.204L34.794,5.195L34.657,5.196L34.517,5.209L34.373,5.232L34.226,5.267L34.075,5.313L33.922,5.370L33.766,5.438L33.607,5.517L33.446,5.607L33.286,5.705Z" fill="url(#g)" fill-rule="evenodd" /><path d="M32.003,19.253L31.955,19.129L31.903,19.001L31.848,18.873L31.790,18.746L31.730,18.619L31.667,18.493L31.602,18.367L31.534,18.243L31.464,18.118L31.391,17.995L31.316,17.872L31.238,17.749L31.158,17.628L31.075,17.507L30.990,17.386L30.905,17.269L30.840,17.150L30.794,17.015L30.764,16.868L30.746,16.710L30.738,16.544L30.735,16.372L30.735,16.197L30.734,16.021L30.728,15.848L30.713,15.680L30.687,15.520L30.645,15.372L30.584,15.240L30.502,15.124L30.412,15.016L30.316,14.912L30.216,14.812L30.111,14.716L30.002,14.625L29.887,14.538L29.769,14.456L29.645,14.378L29.518,14.304L29.386,14.235L29.251,14.170L29.111,14.110L28.968,14.053L28.822,14.001L28.672,13.954L28.519,13.910L28.364,13.870L28.205,13.833L28.045,13.801L27.882,13.771L27.717,13.745L27.550,13.723L27.381,13.703L27.211,13.687L27.040,13.673L26.867,13.662L26.867,13.662L26.897,13.831L26.929,13.995L26.964,14.154L27.002,14.309L27.042,14.460L27.085,14.606L27.130,14.749L27.177,14.889L27.227,15.025L27.278,15.157L27.332,15.287L27.388,15.414L27.445,15.538L27.504,15.660L27.565,15.780L27.627,15.897L27.690,16.013L27.755,16.127L27.821,16.239L27.889,16.349L27.957,16.458L28.027,16.565L28.098,16.671L28.171,16.775L28.244,16.878L28.320,16.980L28.399,17.078L28.493,17.163L28.602,17.237L28.722,17.301L28.852,17.359L28.989,17.412L29.130,17.462L29.272,17.513L29.413,17.566L29.550,17.623L29.678,17.687L29.795,17.761L29.897,17.846L29.980,17.946L30.059,18.055L30.134,18.160L30.206,18.266L30.276,18.372L30.343,18.478L30.408,18.585L30.471,18.691L30.532,18.798L30.590,18.905L30.646,19.013L30.699,19.120L30.750,19.228L30.799,19.336L30.846,19.445L30.891,19.553L30.935,19.667Z M30.285,17.395L30.223,17.276L30.153,17.162L30.083,17.049L30.013,16.935L29.943,16.822L29.872,16.708L29.801,16.595L29.728,16.482L29.654,16.371L29.578,16.261L29.499,16.153L29.416,16.048L29.332,15.944L29.246,15.841L29.159,15.740L29.070,15.640L28.980,15.541L28.888,15.444L28.795,15.347L28.700,15.252L28.604,15.158L28.507,15.066L28.408,14.974L28.309,14.883L28.208,14.794L28.107,14.705L28.005,14.618L27.902,14.530L27.798,14.444L27.694,14.358L27.589,14.273L27.484,14.187L27.380,14.102L27.274,14.017L27.167,13.935L27.167,13.935L27.257,14.036L27.348,14.136L27.438,14.236L27.528,14.337L27.616,14.438L27.704,14.540L27.790,14.642L27.877,14.745L27.963,14.847L28.049,14.950L28.134,15.052L28.220,15.154L28.305,15.256L28.391,15.358L28.476,15.459L28.562,15.560L28.648,15.661L28.735,15.761L28.821,15.861L28.908,15.960L28.996,16.059L29.084,16.157L29.172,16.255L29.261,16.353L29.352,16.448L29.445,16.543L29.539,16.637L29.633,16.730L29.727,16.823L29.821,16.917L29.914,17.012L30.007,17.108L30.098,17.205L30.188,17.302L30.285,17.395Z M29.981,16.718L29.979,16.624L29.981,16.537L29.986,16.453L29.994,16.373L30.005,16.297L30.020,16.224L30.038,16.155L30.060,16.090L30.085,16.028L30.114,15.969L30.147,15.913L30.184,15.861L30.225,15.811L30.271,15.766L30.271,15.766L30.215,15.799L30.162,15.838L30.111,15.882L30.062,15.932L30.017,15.987L29.975,16.046L29.936,16.112L29.900,16.182L29.868,16.257L29.839,16.337L29.813,16.422L29.791,16.512L29.773,16.606L29.758,16.702Z M29.311,16.185L29.186,16.179L29.063,16.178L28.945,16.183L28.832,16.193L28.724,16.210L28.622,16.231L28.525,16.258L28.433,16.291L28.347,16.329L28.267,16.372L28.193,16.420L28.125,16.473L28.062,16.530L28.006,16.592L28.006,16.592L28.075,16.546L28.147,16.507L28.222,16.474L28.300,16.446L28.382,16.425L28.466,16.409L28.554,16.398L28.645,16.393L28.739,16.393L28.838,16.397L28.940,16.407L29.047,16.422L29.157,16.442L29.274,16.468Z M29.168,15.679L29.160,15.562L29.157,15.453L29.157,15.348L29.162,15.248L29.171,15.152L29.185,15.061L29.203,14.973L29.226,14.890L29.253,14.811L29.286,14.736L29.323,14.664L29.366,14.596L29.414,14.532L29.467,14.472L29.467,14.472L29.400,14.518L29.336,14.570L29.275,14.628L29.218,14.693L29.165,14.764L29.117,14.842L29.072,14.926L29.032,15.016L28.997,15.112L28.966,15.213L28.940,15.321L28.919,15.434L28.902,15.553L28.890,15.674Z" fill="url(#g)" fill-rule="evenodd" /><path d="M48.295,29.746L48.295,29.435L48.295,29.123L48.295,28.812L48.295,28.500L48.295,28.189L48.295,27.877L48.289,27.600L48.273,27.324L48.246,27.047L48.212,26.770L48.172,26.493L48.125,26.216L48.075,25.939L48.022,25.662L47.968,25.386L47.914,25.109L47.861,24.832L47.810,24.555L47.764,24.278L47.723,24.001L47.689,23.724L47.663,23.448L47.647,23.171L47.641,22.897L47.643,22.601L47.650,22.314L47.662,22.032L47.678,21.756L47.699,21.485L47.724,21.220L47.754,20.960L47.788,20.706L47.827,20.458L47.870,20.215L47.918,19.977L47.970,19.745L48.027,19.519L48.087,19.298L48.152,19.082L48.222,18.872L48.295,18.668L48.373,18.468L48.455,18.275L48.541,18.086L48.631,17.903L48.730,17.717L48.864,17.526L49.035,17.355L49.239,17.203L49.472,17.068L49.728,16.947L50.003,16.837L50.292,16.736L50.588,16.642L50.887,16.551L51.184,16.460L51.472,16.365L51.746,16.264L51.999,16.153L52.227,16.027L52.424,15.884L52.583,15.719L52.709,15.534L52.827,15.344L52.939,15.150L53.046,14.953L53.147,14.753L53.242,14.548L53.332,14.340L53.417,14.127L53.496,13.911L53.569,13.691L53.638,13.467L53.702,13.239L53.760,13.007L53.814,12.771L53.864,12.531L53.909,12.287L53.950,12.040L53.987,11.789L54.021,11.534L54.051,11.276L54.078,11.014L54.102,10.749L54.123,10.481L54.142,10.210L54.159,9.936L54.174,9.658L54.186,9.379L54.198,9.096L54.208,8.811L54.216,8.524L54.224,8.234L54.231,7.942L54.231,7.942L53.953,8.028L53.681,8.120L53.416,8.218L53.157,8.323L52.904,8.432L52.657,8.547L52.416,8.668L52.181,8.793L51.952,8.924L51.728,9.059L51.509,9.198L51.295,9.342L51.087,9.490L50.883,9.642L50.684,9.797L50.489,9.956L50.298,10.119L50.112,10.285L49.930,10.453L49.751,10.625L49.577,10.800L49.406,10.977L49.238,11.157L49.075,11.340L48.915,11.525L48.758,11.713L48.605,11.903L48.455,12.095L48.309,12.290L48.166,12.487L48.028,12.686L47.894,12.889L47.788,13.107L47.712,13.344L47.663,13.596L47.637,13.862L47.631,14.137L47.640,14.420L47.660,14.708L47.688,14.999L47.717,15.290L47.744,15.578L47.765,15.861L47.773,16.136L47.763,16.401L47.731,16.652L47.670,16.887L47.575,17.103L47.466,17.308L47.359,17.525L47.257,17.748L47.161,17.976L47.070,18.208L46.985,18.446L46.905,18.688L46.830,18.935L46.761,19.187L46.697,19.444L46.638,19.705L46.585,19.971L46.537,20.242L46.494,20.518L46.456,20.798L46.423,21.083L46.395,21.373L46.373,21.668L46.355,21.967L46.343,22.271L46.335,22.580L46.333,22.891L46.327,23.171L46.310,23.448L46.284,23.724L46.250,24.001L46.209,24.278L46.163,24.555L46.113,24.832L46.060,25.109L46.006,25.386L45.951,25.662L45.898,25.939L45.848,26.216L45.802,26.493L45.761,26.770L45.727,27.047L45.701,27.324L45.684,27.600L45.679,27.877L45.679,28.189L45.679,28.500L45.679,28.812L45.679,29.123L45.679,29.435L45.679,29.746Z M48.373,16.998L48.505,16.804L48.632,16.607L48.760,16.411L48.891,16.217L49.025,16.025L49.161,15.834L49.299,15.644L49.438,15.455L49.577,15.266L49.717,15.078L49.844,14.882L49.970,14.686L50.096,14.490L50.222,14.294L50.347,14.097L50.473,13.901L50.599,13.704L50.724,13.508L50.850,13.311L50.975,13.115L51.101,12.918L51.226,12.721L51.351,12.524L51.477,12.327L51.602,12.130L51.725,11.931L51.844,11.730L51.963,11.528L52.082,11.325L52.200,11.123L52.319,10.920L52.438,10.717L52.557,10.514L52.677,10.311L52.797,10.109L52.918,9.906L53.040,9.704L53.163,9.502L53.287,9.301L53.413,9.101L53.539,8.901L53.661,8.697L53.661,8.697L53.502,8.874L53.349,9.054L53.196,9.235L53.043,9.416L52.890,9.597L52.738,9.778L52.587,9.960L52.436,10.142L52.286,10.325L52.137,10.509L51.989,10.693L51.842,10.878L51.697,11.065L51.553,11.252L51.410,11.440L51.270,11.630L51.135,11.823L51.003,12.018L50.873,12.215L50.744,12.412L50.617,12.610L50.492,12.809L50.367,13.009L50.244,13.209L50.123,13.411L50.003,13.613L49.885,13.816L49.768,14.020L49.653,14.225L49.540,14.430L49.427,14.637L49.318,14.844L49.222,15.060L49.127,15.276L49.034,15.493L48.941,15.709L48.847,15.925L48.753,16.140L48.657,16.355L48.560,16.568L48.463,16.781L48.373,16.998Z M49.352,15.819L49.496,15.759L49.633,15.707L49.765,15.663L49.894,15.627L50.019,15.597L50.140,15.576L50.258,15.561L50.373,15.554L50.484,15.555L50.593,15.564L50.700,15.580L50.804,15.605L50.905,15.638L51.004,15.681L51.004,15.681L50.918,15.615L50.825,15.556L50.725,15.505L50.619,15.460L50.506,15.424L50.387,15.396L50.262,15.375L50.131,15.363L49.995,15.360L49.853,15.364L49.706,15.377L49.554,15.398L49.397,15.428L49.239,15.465Z M49.897,14.204L49.834,13.976L49.764,13.757L49.688,13.550L49.604,13.356L49.513,13.173L49.416,13.003L49.312,12.846L49.202,12.701L49.086,12.570L48.963,12.451L48.835,12.346L48.702,12.254L48.564,12.174L48.421,12.108L48.421,12.108L48.548,12.200L48.665,12.301L48.774,12.413L48.875,12.534L48.967,12.664L49.052,12.804L49.130,12.954L49.201,13.113L49.264,13.283L49.321,13.462L49.371,13.652L49.414,13.852L49.451,14.063L49.482,14.289Z M50.968,13.280L51.179,13.207L51.380,13.145L51.575,13.094L51.763,13.054L51.945,13.024L52.122,13.004L52.293,12.995L52.458,12.997L52.618,13.009L52.773,13.032L52.924,13.067L53.070,13.113L53.211,13.171L53.348,13.240L53.348,13.240L53.226,13.144L53.096,13.058L52.956,12.982L52.807,12.916L52.649,12.861L52.482,12.817L52.307,12.784L52.123,12.762L51.931,12.752L51.731,12.753L51.523,12.766L51.307,12.790L51.084,12.825L50.857,12.871Z M51.549,11.643L51.501,11.441L51.447,11.246L51.385,11.061L51.318,10.887L51.244,10.723L51.163,10.571L51.076,10.429L50.983,10.298L50.885,10.179L50.780,10.071L50.671,9.975L50.556,9.890L50.437,9.816L50.313,9.754L50.313,9.754L50.419,9.841L50.517,9.936L50.606,10.039L50.688,10.149L50.762,10.268L50.829,10.394L50.889,10.529L50.943,10.671L50.990,10.822L51.030,10.981L51.064,11.149L51.092,11.325L51.114,11.511L51.130,11.709Z" fill="url(#g)" fill-rule="evenodd" /><path d="M23.440,47.188L23.440,47.499L23.440,47.811L23.440,48.122L23.440,48.434L23.440,48.745L23.440,49.057L23.441,49.230L23.441,49.403L23.443,49.576L23.444,49.749L23.446,49.922L23.448,50.095L23.451,50.268L23.453,50.441L23.456,50.614L23.459,50.787L23.461,50.960L23.463,51.133L23.466,51.306L23.468,51.479L23.469,51.652L23.470,51.825L23.471,51.998L23.472,52.169L23.470,52.331L23.467,52.489L23.462,52.643L23.455,52.794L23.445,52.942L23.434,53.086L23.420,53.228L23.404,53.367L23.387,53.502L23.367,53.635L23.346,53.764L23.322,53.891L23.297,54.014L23.269,54.134L23.240,54.251L23.209,54.364L23.176,54.475L23.142,54.583L23.105,54.687L23.067,54.789L23.027,54.887L22.982,54.990L22.905,55.122L22.805,55.244L22.685,55.359L22.548,55.466L22.396,55.569L22.233,55.668L22.062,55.764L21.885,55.860L21.708,55.956L21.532,56.054L21.362,56.155L21.201,56.261L21.054,56.373L20.924,56.492L20.815,56.620L20.731,56.757L20.671,56.903L20.617,57.051L20.569,57.202L20.525,57.354L20.488,57.508L20.456,57.663L20.429,57.821L20.408,57.980L20.392,58.141L20.382,58.303L20.377,58.466L20.377,58.631L20.383,58.797L20.394,58.965L20.410,59.133L20.431,59.303L20.457,59.473L20.487,59.644L20.522,59.816L20.561,59.988L20.605,60.162L20.653,60.335L20.705,60.509L20.760,60.683L20.819,60.858L20.882,61.032L20.948,61.207L21.017,61.382L21.089,61.557L21.164,61.731L21.241,61.906L21.322,62.080L21.322,62.080L21.468,61.958L21.609,61.835L21.745,61.712L21.876,61.590L22.003,61.466L22.125,61.343L22.243,61.219L22.357,61.096L22.467,60.971L22.573,60.847L22.676,60.722L22.775,60.597L22.870,60.471L22.963,60.345L23.053,60.219L23.140,60.093L23.224,59.966L23.306,59.839L23.386,59.712L23.463,59.584L23.538,59.456L23.611,59.328L23.683,59.200L23.752,59.071L23.820,58.942L23.886,58.812L23.950,58.683L24.012,58.553L24.073,58.422L24.132,58.291L24.189,58.160L24.244,58.027L24.281,57.889L24.300,57.744L24.303,57.592L24.292,57.435L24.270,57.273L24.240,57.107L24.205,56.938L24.166,56.768L24.128,56.596L24.093,56.425L24.064,56.256L24.045,56.090L24.038,55.928L24.046,55.773L24.074,55.625L24.125,55.487L24.176,55.369L24.228,55.242L24.277,55.111L24.323,54.979L24.367,54.843L24.407,54.706L24.446,54.565L24.481,54.423L24.514,54.278L24.545,54.130L24.573,53.981L24.598,53.828L24.621,53.674L24.641,53.517L24.659,53.357L24.675,53.195L24.688,53.031L24.698,52.864L24.707,52.694L24.713,52.522L24.716,52.348L24.717,52.173L24.718,51.998L24.718,51.825L24.720,51.652L24.721,51.479L24.723,51.306L24.725,51.133L24.728,50.960L24.730,50.787L24.733,50.614L24.736,50.441L24.738,50.268L24.740,50.095L24.743,49.922L24.745,49.749L24.746,49.576L24.747,49.403L24.748,49.230L24.748,49.057L24.748,48.745L24.748,48.434L24.748,48.122L24.748,47.811L24.748,47.499L24.748,47.188Z M23.435,55.513L23.358,55.642L23.288,55.775L23.219,55.908L23.149,56.041L23.079,56.173L23.008,56.306L22.937,56.439L22.866,56.573L22.797,56.706L22.728,56.841L22.661,56.976L22.596,57.112L22.534,57.249L22.475,57.388L22.420,57.528L22.367,57.668L22.315,57.810L22.265,57.952L22.216,58.094L22.169,58.237L22.124,58.381L22.080,58.526L22.038,58.670L21.998,58.816L21.959,58.962L21.921,59.108L21.885,59.255L21.850,59.402L21.816,59.549L21.784,59.697L21.753,59.846L21.723,59.994L21.693,60.143L21.665,60.292L21.637,60.441L21.610,60.590L21.584,60.740L21.557,60.889L21.532,61.039L21.506,61.188L21.480,61.338L21.460,61.489L21.460,61.489L21.511,61.346L21.558,61.201L21.606,61.058L21.655,60.914L21.705,60.771L21.756,60.629L21.807,60.487L21.859,60.345L21.911,60.203L21.963,60.062L22.016,59.921L22.068,59.780L22.120,59.639L22.173,59.499L22.225,59.358L22.277,59.218L22.329,59.077L22.380,58.937L22.431,58.797L22.481,58.656L22.531,58.516L22.580,58.375L22.629,58.234L22.677,58.094L22.725,57.953L22.772,57.811L22.819,57.670L22.865,57.529L22.908,57.386L22.950,57.243L22.989,57.099L23.028,56.955L23.066,56.810L23.104,56.665L23.142,56.520L23.181,56.375L23.221,56.231L23.263,56.087L23.306,55.944L23.351,55.801L23.397,55.658L23.435,55.513Z M22.881,56.320L22.784,56.378L22.692,56.429L22.602,56.474L22.513,56.513L22.427,56.547L22.343,56.575L22.260,56.598L22.179,56.614L22.099,56.626L22.020,56.631L21.942,56.630L21.865,56.623L21.789,56.609L21.714,56.590L21.714,56.590L21.783,56.628L21.856,56.660L21.932,56.686L22.013,56.707L22.097,56.721L22.185,56.729L22.276,56.731L22.371,56.726L22.469,56.715L22.569,56.697L22.673,56.672L22.780,56.641L22.889,56.604L22.998,56.561Z M22.689,57.439L22.763,57.583L22.841,57.721L22.922,57.850L23.007,57.970L23.094,58.080L23.184,58.182L23.277,58.273L23.372,58.355L23.470,58.427L23.570,58.489L23.671,58.541L23.774,58.584L23.879,58.617L23.984,58.641L23.984,58.641L23.889,58.593L23.798,58.537L23.713,58.474L23.632,58.404L23.556,58.327L23.484,58.242L23.415,58.151L23.351,58.052L23.289,57.946L23.232,57.833L23.177,57.711L23.125,57.583L23.077,57.446L23.030,57.298Z M22.150,58.102L22.024,58.187L21.903,58.262L21.785,58.329L21.669,58.388L21.555,58.440L21.443,58.483L21.334,58.519L21.225,58.548L21.118,58.568L21.013,58.581L20.908,58.585L20.804,58.581L20.701,58.568L20.598,58.546L20.598,58.546L20.693,58.593L20.794,58.631L20.898,58.662L21.008,58.684L21.123,58.697L21.242,58.702L21.365,58.698L21.492,58.684L21.623,58.662L21.757,58.631L21.895,58.591L22.036,58.542L22.181,58.484L22.325,58.419Z" fill="url(#g)" fill-rule="evenodd" /><path d="M37.830,47.188L37.830,47.499L37.830,47.811L37.830,48.122L37.830,48.434L37.830,48.745L37.830,49.057L37.830,49.230L37.831,49.403L37.832,49.576L37.834,49.749L37.836,49.922L37.838,50.095L37.840,50.268L37.843,50.441L37.845,50.614L37.848,50.787L37.851,50.960L37.853,51.133L37.855,51.306L37.857,51.479L37.859,51.652L37.860,51.825L37.861,51.998L37.861,52.173L37.862,52.332L37.866,52.491L37.872,52.647L37.880,52.801L37.891,52.953L37.904,53.103L37.919,53.250L37.937,53.396L37.958,53.539L37.981,53.680L38.006,53.819L38.034,53.956L38.065,54.090L38.098,54.223L38.134,54.353L38.173,54.481L38.214,54.607L38.258,54.730L38.305,54.851L38.354,54.970L38.406,55.087L38.457,55.193L38.500,55.321L38.521,55.459L38.524,55.605L38.510,55.758L38.482,55.916L38.443,56.079L38.396,56.244L38.343,56.411L38.288,56.578L38.233,56.743L38.183,56.906L38.140,57.065L38.108,57.218L38.090,57.364L38.089,57.503L38.110,57.633L38.151,57.755L38.197,57.874L38.247,57.993L38.300,58.110L38.358,58.225L38.420,58.340L38.485,58.453L38.555,58.565L38.629,58.676L38.707,58.785L38.788,58.894L38.874,59.002L38.964,59.109L39.057,59.216L39.154,59.322L39.255,59.427L39.359,59.532L39.466,59.636L39.577,59.741L39.691,59.845L39.807,59.949L39.927,60.053L40.049,60.157L40.173,60.262L40.300,60.366L40.429,60.471L40.561,60.577L40.694,60.683L40.829,60.789L40.965,60.896L41.104,61.003L41.243,61.112L41.243,61.112L41.314,60.950L41.379,60.790L41.438,60.630L41.491,60.471L41.540,60.312L41.583,60.154L41.621,59.997L41.654,59.841L41.683,59.686L41.706,59.532L41.726,59.378L41.741,59.225L41.752,59.073L41.759,58.922L41.763,58.772L41.762,58.622L41.759,58.473L41.752,58.325L41.741,58.178L41.728,58.032L41.711,57.886L41.692,57.741L41.670,57.597L41.645,57.454L41.617,57.312L41.587,57.170L41.554,57.030L41.518,56.890L41.480,56.751L41.439,56.613L41.395,56.476L41.348,56.341L41.285,56.212L41.204,56.090L41.108,55.975L40.999,55.866L40.879,55.762L40.751,55.662L40.617,55.565L40.479,55.471L40.341,55.378L40.205,55.285L40.073,55.191L39.948,55.095L39.834,54.994L39.732,54.888L39.646,54.775L39.580,54.653L39.536,54.562L39.498,54.476L39.461,54.388L39.426,54.297L39.393,54.204L39.361,54.107L39.331,54.008L39.303,53.905L39.276,53.800L39.252,53.692L39.229,53.581L39.208,53.467L39.189,53.351L39.172,53.231L39.157,53.109L39.144,52.983L39.133,52.855L39.123,52.724L39.116,52.590L39.111,52.453L39.108,52.314L39.107,52.169L39.107,51.998L39.108,51.825L39.109,51.652L39.111,51.479L39.113,51.306L39.115,51.133L39.117,50.960L39.120,50.787L39.122,50.614L39.125,50.441L39.128,50.268L39.130,50.095L39.132,49.922L39.134,49.749L39.136,49.576L39.137,49.403L39.138,49.230L39.138,49.057L39.138,48.745L39.138,48.434L39.138,48.122L39.138,47.811L39.138,47.499L39.138,47.188Z M39.136,55.169L39.175,55.301L39.221,55.430L39.266,55.559L39.310,55.688L39.353,55.818L39.394,55.949L39.434,56.079L39.474,56.210L39.513,56.342L39.552,56.472L39.591,56.603L39.632,56.733L39.674,56.863L39.718,56.991L39.764,57.119L39.811,57.247L39.858,57.374L39.905,57.501L39.953,57.629L40.002,57.756L40.051,57.883L40.100,58.009L40.150,58.136L40.200,58.263L40.251,58.390L40.302,58.517L40.353,58.644L40.404,58.771L40.456,58.898L40.507,59.025L40.559,59.152L40.611,59.280L40.662,59.408L40.713,59.536L40.764,59.664L40.814,59.793L40.864,59.922L40.913,60.052L40.961,60.182L41.008,60.312L41.055,60.443L41.105,60.573L41.105,60.573L41.083,60.435L41.057,60.299L41.030,60.162L41.004,60.026L40.977,59.890L40.949,59.754L40.921,59.617L40.893,59.482L40.863,59.346L40.833,59.210L40.802,59.075L40.770,58.940L40.737,58.806L40.703,58.672L40.668,58.538L40.631,58.405L40.593,58.272L40.554,58.140L40.513,58.008L40.470,57.876L40.427,57.746L40.381,57.615L40.334,57.486L40.286,57.357L40.236,57.229L40.185,57.101L40.132,56.974L40.077,56.848L40.019,56.723L39.958,56.600L39.895,56.477L39.829,56.356L39.762,56.236L39.694,56.116L39.625,55.996L39.556,55.877L39.487,55.758L39.418,55.640L39.350,55.521L39.282,55.402L39.213,55.283L39.136,55.169Z M39.317,56.037L39.291,56.140L39.263,56.236L39.233,56.327L39.200,56.412L39.165,56.493L39.127,56.568L39.087,56.638L39.044,56.704L38.998,56.765L38.948,56.821L38.896,56.873L38.840,56.919L38.780,56.961L38.716,56.998L38.716,56.998L38.788,56.978L38.858,56.951L38.927,56.917L38.995,56.877L39.061,56.830L39.125,56.777L39.187,56.717L39.247,56.650L39.305,56.577L39.360,56.498L39.413,56.412L39.464,56.320L39.512,56.222L39.557,56.120Z M39.900,56.897L40.041,56.950L40.182,56.997L40.319,57.036L40.453,57.066L40.582,57.088L40.708,57.101L40.830,57.107L40.947,57.104L41.060,57.092L41.168,57.073L41.271,57.046L41.369,57.011L41.462,56.968L41.550,56.919L41.550,56.919L41.454,56.945L41.356,56.963L41.258,56.973L41.158,56.975L41.056,56.969L40.954,56.956L40.849,56.935L40.742,56.907L40.634,56.872L40.522,56.830L40.409,56.780L40.292,56.723L40.173,56.659L40.048,56.586Z M39.909,57.668L39.866,57.804L39.822,57.929L39.776,58.047L39.726,58.158L39.673,58.262L39.618,58.359L39.559,58.449L39.496,58.533L39.431,58.610L39.361,58.681L39.287,58.746L39.209,58.803L39.127,58.855L39.040,58.899L39.040,58.899L39.136,58.877L39.231,58.846L39.325,58.807L39.418,58.759L39.509,58.702L39.598,58.636L39.686,58.561L39.770,58.477L39.852,58.384L39.932,58.283L40.009,58.173L40.083,58.055L40.154,57.928L40.221,57.796Z" fill="url(#g)" fill-rule="evenodd" /></svg>