<svg baseProfile="full" height="512" version="1.1" viewBox="0 0 512 512" width="512" xmlns="http://www.w3.org/2000/svg" xmlns:ev="http://www.w3.org/2001/xml-events" xmlns:xlink="http://www.w3.org/1999/xlink"><defs><linearGradient gradientUnits="userSpaceOnUse" id="g" x1="215.04" x2="296.96" y1="486.4" y2="25.6"><stop offset="0.0" stop-color="#0A5E2E" /><stop offset="0.32" stop-color="#0F8038" /><stop offset="0.6" stop-color="#17A850" /><stop offset="0.83" stop-color="#34C46E" /><stop offset="1.0" stop-color="#78E8B0" /></linearGradient></defs><rect fill="url(#g)" height="162.22476682225985" rx="3.339921669870056" width="10.019765009610154" x="90.23911947293752" y="224.42190219051977" /><rect fill="url(#g)" height="162.22476682225985" rx="3.339921669870056" width="20.039530019220336" x="120.29841450176801" y="224.42190219051977" /><rect fill="url(#g)" height="162.22476682225985" rx="3.339921669870056" width="30.05929502883049" x="150.35770953059853" y="224.42190219051977" /><rect fill="url(#g)" height="162.22476682225985" rx="3.339921669870056" width="10.019765009610182" x="190.4367695690392" y="224.42190219051977" /><rect fill="url(#g)" height="162.22476682225985" rx="3.339921669870056" width="10.019765009610182" x="220.4960645978697" y="224.42190219051977" /><rect fill="url(#g)" height="162.22476682225985" rx="3.339921669870056" width="20.039530019220336" x="240.53559461709003" y="224.42190219051977" /><rect fill="url(#g)" height="162.22476682225985" rx="3.339921669870056" width="10.019765009610126" x="270.59488964592055" y="224.42190219051977" /><rect fill="url(#g)" height="162.22476682225985" rx="3.339921669870056" width="10.019765009610182" x="300.65418467475104" y="224.42190219051977" /><rect fill="url(#g)" height="162.22476682225985" rx="3.339921669870056" width="20.039530019220308" x="320.6937146939714" y="224.42190219051977" /><rect fill="url(#g)" height="162.22476682225985" rx="3.339921669870056" width="20.039530019220365" x="360.772774732412" y="224.42190219051977" /><rect fill="url(#g)" height="162.22476682225985" rx="3.339921669870056" width="10.019765009610126" x="390.83206976124256" y="224.42190219051977" /><rect fill="url(#g)" height="162.22476682225985" rx="3.339921669870056" width="20.039530019220365" x="410.87159978046293" y="224.42190219051977" /><path d="M140.338,238.736L140.338,236.350L140.338,233.965L140.338,231.579L140.338,229.193L140.338,226.808L140.338,224.422L140.293,222.301L140.166,220.181L139.967,218.060L139.706,215.940L139.393,213.819L139.039,211.698L138.654,209.578L138.249,207.457L137.833,205.337L137.417,203.216L137.012,201.095L136.627,198.975L136.273,196.854L135.960,194.734L135.699,192.613L135.500,190.493L135.373,188.372L135.328,186.233L135.312,184.113L135.266,182.006L135.187,179.932L135.078,177.889L134.936,175.878L134.763,173.899L134.558,171.951L134.321,170.035L134.052,168.151L133.750,166.298L133.415,164.477L133.048,162.687L132.647,160.929L132.213,159.203L131.746,157.508L131.245,155.845L130.710,154.213L130.140,152.614L129.536,151.047L128.898,149.513L128.224,148.011L127.545,146.602L126.970,144.935L126.668,143.128L126.609,141.197L126.756,139.158L127.072,137.027L127.521,134.820L128.062,132.557L128.655,130.255L129.260,127.937L129.834,125.624L130.334,123.338L130.717,121.103L130.939,118.945L130.955,116.888L130.721,114.959L130.193,113.185L129.398,111.555L128.535,109.961L127.618,108.397L126.648,106.863L125.624,105.360L124.546,103.888L123.415,102.447L122.231,101.039L120.995,99.663L119.708,98.319L118.370,97.007L116.982,95.728L115.547,94.481L114.064,93.266L112.536,92.083L110.963,90.931L109.348,89.810L107.692,88.720L105.996,87.659L104.263,86.628L102.494,85.626L100.692,84.651L98.857,83.703L96.991,82.782L95.097,81.886L93.177,81.015L91.230,80.168L89.261,79.345L87.269,78.544L85.256,77.765L83.223,77.007L81.172,76.271L81.172,76.271L81.110,78.434L81.089,80.560L81.108,82.649L81.166,84.704L81.263,86.724L81.397,88.711L81.567,90.667L81.772,92.593L82.012,94.490L82.283,96.359L82.586,98.203L82.919,100.022L83.280,101.817L83.668,103.591L84.082,105.343L84.521,107.076L84.983,108.790L85.467,110.487L85.972,112.167L86.497,113.831L87.041,115.481L87.604,117.117L88.185,118.739L88.783,120.349L89.398,121.947L90.030,123.532L90.679,125.106L91.344,126.669L92.027,128.221L92.726,129.761L93.444,131.290L94.193,132.802L95.136,134.207L96.302,135.493L97.664,136.678L99.191,137.780L100.855,138.815L102.624,139.803L104.467,140.759L106.351,141.703L108.242,142.651L110.105,143.623L111.904,144.635L113.599,145.706L115.151,146.855L116.518,148.101L117.657,149.462L118.524,150.962L119.139,152.237L119.700,153.487L120.235,154.773L120.745,156.095L121.229,157.455L121.687,158.851L122.119,160.284L122.524,161.754L122.903,163.262L123.255,164.807L123.580,166.389L123.877,168.008L124.147,169.665L124.389,171.359L124.603,173.091L124.790,174.859L124.948,176.665L125.077,178.508L125.178,180.389L125.250,182.306L125.294,184.260L125.308,186.269L125.264,188.372L125.136,190.493L124.937,192.613L124.676,194.734L124.363,196.854L124.009,198.975L123.625,201.095L123.219,203.216L122.803,205.337L122.388,207.457L121.982,209.578L121.597,211.698L121.243,213.819L120.931,215.940L120.670,218.060L120.470,220.181L120.343,222.301L120.298,224.422L120.298,226.808L120.298,229.193L120.298,231.579L120.298,233.965L120.298,236.350L120.298,238.736Z M121.514,145.653L120.911,144.011L120.250,142.396L119.594,140.778L118.947,139.154L118.309,137.524L117.679,135.889L117.053,134.250L116.426,132.611L115.792,130.973L115.147,129.340L114.433,127.741L113.668,126.169L112.891,124.603L112.103,123.043L111.303,121.487L110.492,119.938L109.670,118.394L108.838,116.855L107.994,115.322L107.139,113.795L106.274,112.273L105.398,110.757L104.511,109.247L103.614,107.742L102.695,106.250L101.731,104.785L100.755,103.327L99.765,101.876L98.765,100.433L97.754,98.996L96.733,97.566L95.702,96.141L94.664,94.722L93.619,93.307L92.569,91.896L91.513,90.489L90.454,89.084L89.392,87.681L88.328,86.279L87.264,84.878L86.198,83.478L85.088,82.107L85.088,82.107L85.911,83.667L86.768,85.202L87.618,86.740L88.459,88.282L89.292,89.828L90.117,91.377L90.937,92.927L91.751,94.479L92.562,96.032L93.370,97.585L94.177,99.137L94.982,100.688L95.788,102.238L96.595,103.786L97.403,105.331L98.214,106.873L99.029,108.412L99.879,109.930L100.740,111.440L101.602,112.948L102.466,114.456L103.330,115.963L104.196,117.468L105.062,118.973L105.930,120.477L106.799,121.980L107.670,123.482L108.542,124.983L109.415,126.483L110.290,127.983L111.168,129.482L112.087,130.958L113.064,132.405L114.044,133.852L115.021,135.301L115.988,136.757L116.942,138.220L117.879,139.693L118.797,141.177L119.696,142.672L120.581,144.174L121.514,145.653Z M118.375,134.628L118.585,133.475L118.818,132.404L119.081,131.389L119.376,130.428L119.701,129.521L120.059,128.667L120.450,127.865L120.875,127.114L121.337,126.412L121.836,125.760L122.375,125.157L122.956,124.603L123.581,124.099L124.252,123.647L124.252,123.647L123.483,123.925L122.732,124.273L122.000,124.691L121.288,125.180L120.599,125.742L119.934,126.375L119.296,127.080L118.687,127.855L118.107,128.699L117.557,129.611L117.039,130.591L116.552,131.636L116.097,132.747L115.682,133.897Z M110.260,124.780L108.559,124.315L106.880,123.931L105.251,123.637L103.675,123.434L102.153,123.322L100.685,123.302L99.274,123.372L97.921,123.533L96.628,123.783L95.398,124.120L94.231,124.544L93.129,125.052L92.092,125.641L91.119,126.309L91.119,126.309L92.195,125.849L93.300,125.483L94.433,125.209L95.596,125.026L96.789,124.930L98.014,124.920L99.273,124.994L100.568,125.152L101.899,125.393L103.270,125.716L104.682,126.122L106.135,126.610L107.631,127.182L109.200,127.847Z M108.197,114.455L108.456,112.803L108.754,111.260L109.100,109.796L109.493,108.410L109.933,107.101L110.422,105.866L110.960,104.706L111.550,103.618L112.193,102.602L112.890,101.657L113.645,100.783L114.460,99.979L115.337,99.247L116.278,98.589L116.278,98.589L115.216,99.050L114.185,99.606L113.188,100.259L112.227,101.010L111.304,101.859L110.422,102.805L109.584,103.848L108.790,104.987L108.042,106.220L107.342,107.546L106.690,108.965L106.087,110.474L105.532,112.073L105.034,113.731Z M99.222,105.000L97.708,104.665L96.213,104.399L94.767,104.212L93.370,104.102L92.024,104.071L90.730,104.119L89.490,104.244L88.306,104.447L87.179,104.726L86.112,105.080L85.106,105.507L84.161,106.005L83.278,106.571L82.457,107.202L82.457,107.202L83.389,106.774L84.349,106.429L85.334,106.164L86.346,105.977L87.386,105.866L88.455,105.830L89.555,105.865L90.687,105.972L91.854,106.150L93.057,106.398L94.298,106.717L95.577,107.106L96.896,107.566L98.286,108.106Z" fill="url(#g)" fill-rule="evenodd" /><path d="M260.575,238.736L260.575,236.350L260.575,233.965L260.575,231.579L260.575,229.193L260.575,226.808L260.575,224.422L260.530,222.301L260.403,220.181L260.204,218.060L259.943,215.940L259.630,213.819L259.276,211.698L258.891,209.578L258.486,207.457L258.070,205.337L257.654,203.216L257.249,201.095L256.864,198.975L256.510,196.854L256.197,194.734L255.936,192.613L255.737,190.493L255.610,188.372L255.565,186.257L255.571,183.172L255.590,180.142L255.621,177.159L255.664,174.225L255.719,171.339L255.786,168.502L255.866,165.713L255.958,162.972L256.062,160.281L256.179,157.637L256.308,155.042L256.448,152.496L256.601,149.999L256.766,147.551L256.943,145.151L257.133,142.800L257.334,140.498L257.547,138.245L257.772,136.042L258.009,133.887L258.258,131.782L258.522,129.707L259.041,127.577L259.942,125.501L261.181,123.472L262.711,121.486L264.484,119.540L266.450,117.626L268.557,115.739L270.751,113.873L272.976,112.019L275.176,110.169L277.293,108.315L279.266,106.446L281.036,104.553L282.542,102.625L283.721,100.649L284.512,98.615L284.951,96.525L285.311,94.422L285.612,92.309L285.853,90.186L286.035,88.052L286.156,85.906L286.217,83.748L286.218,81.579L286.161,79.396L286.045,77.201L285.872,74.994L285.642,72.772L285.357,70.538L285.019,68.290L284.629,66.028L284.188,63.753L283.699,61.465L283.164,59.163L282.583,56.847L281.961,54.518L281.298,52.176L280.598,49.821L279.861,47.453L279.091,45.073L278.290,42.680L277.459,40.275L276.601,37.857L275.718,35.429L274.811,32.988L273.883,30.537L272.935,28.074L271.968,25.600L271.968,25.600L270.044,27.416L268.192,29.254L266.409,31.113L264.696,32.992L263.049,34.891L261.469,36.809L259.951,38.744L258.496,40.698L257.100,42.667L255.762,44.653L254.479,46.653L253.251,48.667L252.073,50.695L250.946,52.736L249.865,54.789L248.831,56.853L247.840,58.928L246.891,61.013L245.983,63.107L245.114,65.211L244.282,67.324L243.488,69.445L242.728,71.573L242.004,73.709L241.314,75.853L240.657,78.003L240.035,80.160L239.445,82.324L238.890,84.494L238.368,86.670L237.881,88.853L237.447,91.044L237.289,93.279L237.447,95.563L237.880,97.887L238.548,100.243L239.410,102.625L240.422,105.023L241.543,107.431L242.727,109.842L243.928,112.250L245.099,114.646L246.190,117.025L247.150,119.381L247.925,121.706L248.461,123.996L248.699,126.243L248.582,128.441L248.313,130.564L248.054,132.751L247.808,134.985L247.575,137.264L247.355,139.590L247.148,141.962L246.953,144.380L246.771,146.845L246.602,149.356L246.445,151.914L246.301,154.518L246.170,157.169L246.051,159.866L245.945,162.611L245.851,165.402L245.770,168.240L245.701,171.124L245.645,174.056L245.602,177.034L245.570,180.060L245.552,183.132L245.545,186.245L245.501,188.372L245.374,190.493L245.174,192.613L244.913,194.734L244.601,196.854L244.247,198.975L243.862,201.095L243.456,203.216L243.041,205.337L242.625,207.457L242.219,209.578L241.834,211.698L241.481,213.819L241.168,215.940L240.907,218.060L240.707,220.181L240.580,222.301L240.536,224.422L240.536,226.808L240.536,229.193L240.536,231.579L240.536,233.965L240.536,236.350L240.536,238.736Z M254.111,124.736L254.589,122.594L255.017,120.445L255.465,118.300L255.939,116.159L256.438,114.022L256.960,111.889L257.500,109.760L258.051,107.633L258.526,105.496L258.935,103.349L259.340,101.202L259.741,99.054L260.140,96.906L260.536,94.758L260.929,92.609L261.319,90.460L261.708,88.311L262.094,86.161L262.477,84.010L262.859,81.859L263.239,79.708L263.616,77.556L263.991,75.403L264.364,73.250L264.735,71.096L265.103,68.941L265.470,66.785L265.834,64.628L266.195,62.470L266.525,60.306L266.806,58.131L267.085,55.955L267.364,53.778L267.644,51.601L267.927,49.422L268.214,47.244L268.507,45.066L268.807,42.888L269.115,40.711L269.433,38.535L269.759,36.360L270.036,34.172L270.036,34.172L269.369,36.274L268.760,38.389L268.152,40.504L267.544,42.620L266.937,44.736L266.331,46.852L265.729,48.970L265.131,51.089L264.540,53.209L263.957,55.332L263.383,57.456L262.819,59.583L262.314,61.721L261.850,63.868L261.397,66.016L260.955,68.167L260.525,70.319L260.105,72.474L259.697,74.630L259.301,76.788L258.915,78.948L258.541,81.109L258.178,83.273L257.826,85.438L257.485,87.604L257.156,89.773L256.838,91.943L256.531,94.114L256.237,96.287L255.954,98.461L255.683,100.637L255.424,102.814L255.179,104.993L255.009,107.183L254.924,109.384L254.836,111.584L254.740,113.781L254.630,115.976L254.504,118.168L254.361,120.356L254.207,122.543L254.111,124.736Z M258.472,110.987L259.431,110.059L260.357,109.223L261.274,108.459L262.183,107.766L263.086,107.143L263.983,106.591L264.877,106.109L265.769,105.696L266.661,105.353L267.555,105.081L268.454,104.880L269.358,104.754L270.270,104.703L271.190,104.730L271.190,104.730L270.295,104.477L269.370,104.300L268.416,104.201L267.432,104.181L266.423,104.244L265.388,104.389L264.331,104.617L263.253,104.929L262.157,105.325L261.043,105.804L259.914,106.366L258.770,107.010L257.613,107.736L256.466,108.524Z M257.684,95.406L256.461,93.770L255.204,92.226L253.930,90.801L252.639,89.496L251.333,88.311L250.013,87.248L248.679,86.307L247.335,85.490L245.982,84.795L244.622,84.224L243.258,83.776L241.892,83.450L240.526,83.243L239.160,83.154L239.160,83.154L240.482,83.471L241.766,83.896L243.015,84.427L244.230,85.064L245.413,85.804L246.566,86.648L247.693,87.595L248.795,88.646L249.874,89.801L250.931,91.062L251.967,92.428L252.984,93.901L253.982,95.482L254.978,97.197Z M263.510,83.086L264.979,81.807L266.407,80.653L267.819,79.606L269.214,78.664L270.595,77.827L271.963,77.095L273.319,76.467L274.666,75.943L276.005,75.523L277.339,75.209L278.670,75.001L279.999,74.902L281.328,74.913L282.657,75.036L282.657,75.036L281.360,74.683L280.024,74.439L278.650,74.306L277.239,74.287L275.793,74.384L274.313,74.598L272.803,74.929L271.263,75.378L269.696,75.945L268.104,76.630L266.488,77.432L264.849,78.350L263.188,79.384L261.530,80.516Z M262.784,67.392L261.737,65.934L260.656,64.552L259.557,63.275L258.441,62.104L257.308,61.039L256.161,60.081L255.000,59.231L253.828,58.490L252.645,57.858L251.456,57.336L250.261,56.922L249.064,56.615L247.865,56.415L246.667,56.319L246.667,56.319L247.815,56.642L248.926,57.058L250.000,57.566L251.040,58.164L252.049,58.852L253.028,59.628L253.980,60.492L254.906,61.446L255.809,62.489L256.690,63.623L257.551,64.849L258.392,66.167L259.213,67.578L260.032,69.110Z M267.768,57.210L268.808,56.304L269.811,55.491L270.801,54.752L271.779,54.086L272.746,53.493L273.704,52.971L274.654,52.522L275.598,52.145L276.538,51.840L277.477,51.608L278.416,51.451L279.358,51.370L280.302,51.368L281.251,51.447L281.251,51.447L280.340,51.139L279.394,50.908L278.414,50.756L277.400,50.685L276.354,50.696L275.279,50.792L274.175,50.972L273.047,51.238L271.894,51.589L270.720,52.025L269.525,52.545L268.311,53.150L267.078,53.838L265.852,54.591Z" fill="url(#g)" fill-rule="evenodd" /><path d="M256.026,158.362L255.658,157.413L255.255,156.430L254.833,155.451L254.391,154.477L253.930,153.507L253.449,152.541L252.950,151.581L252.430,150.624L251.892,149.673L251.335,148.726L250.759,147.784L250.163,146.847L249.549,145.915L248.916,144.987L248.264,144.064L247.611,143.168L247.116,142.251L246.763,141.220L246.531,140.093L246.395,138.885L246.330,137.614L246.310,136.298L246.310,134.957L246.300,133.610L246.255,132.281L246.146,130.993L245.945,129.770L245.624,128.638L245.156,127.623L244.527,126.741L243.834,125.911L243.103,125.113L242.336,124.348L241.533,123.615L240.693,122.915L239.818,122.249L238.909,121.617L237.965,121.020L236.988,120.456L235.980,119.926L234.941,119.430L233.873,118.967L232.778,118.537L231.655,118.138L230.508,117.772L229.338,117.435L228.146,117.128L226.934,116.850L225.703,116.600L224.455,116.376L223.192,116.178L221.914,116.004L220.624,115.854L219.322,115.727L218.009,115.622L216.687,115.538L216.687,115.538L216.913,116.830L217.160,118.086L217.428,119.307L217.716,120.494L218.023,121.649L218.350,122.773L218.695,123.867L219.058,124.934L219.438,125.975L219.834,126.992L220.245,127.985L220.671,128.957L221.110,129.910L221.562,130.843L222.026,131.759L222.502,132.660L222.989,133.545L223.486,134.416L223.992,135.274L224.509,136.119L225.035,136.953L225.570,137.775L226.115,138.586L226.669,139.386L227.234,140.175L227.809,140.954L228.417,141.703L229.141,142.355L229.973,142.920L230.896,143.414L231.890,143.856L232.937,144.261L234.017,144.649L235.108,145.036L236.187,145.439L237.231,145.878L238.214,146.369L239.110,146.932L239.890,147.586L240.527,148.354L241.133,149.184L241.704,149.993L242.257,150.803L242.792,151.615L243.309,152.429L243.808,153.245L244.289,154.062L244.752,154.881L245.198,155.701L245.626,156.524L246.036,157.348L246.429,158.174L246.804,159.003L247.162,159.833L247.503,160.665L247.841,161.537Z M242.865,144.130L242.388,143.219L241.856,142.348L241.319,141.480L240.782,140.610L240.244,139.739L239.703,138.869L239.156,138.001L238.601,137.139L238.032,136.285L237.446,135.444L236.840,134.618L236.210,133.812L235.565,133.017L234.908,132.231L234.239,131.455L233.558,130.689L232.866,129.932L232.163,129.185L231.449,128.447L230.724,127.719L229.989,127.000L229.244,126.290L228.491,125.588L227.728,124.895L226.958,124.209L226.181,123.530L225.398,122.858L224.608,122.191L223.814,121.529L223.017,120.871L222.216,120.216L221.413,119.563L220.609,118.911L219.804,118.261L218.981,117.629L218.981,117.629L219.670,118.404L220.369,119.166L221.060,119.934L221.743,120.707L222.420,121.484L223.091,122.264L223.757,123.047L224.419,123.831L225.078,124.616L225.735,125.401L226.391,126.185L227.045,126.968L227.700,127.749L228.355,128.528L229.010,129.304L229.668,130.078L230.327,130.848L230.988,131.615L231.652,132.379L232.319,133.140L232.989,133.897L233.662,134.651L234.339,135.402L235.021,136.148L235.719,136.881L236.429,137.605L237.147,138.323L237.869,139.038L238.592,139.754L239.312,140.474L240.026,141.200L240.732,141.933L241.430,142.674L242.123,143.419L242.865,144.130Z M240.534,138.945L240.523,138.227L240.535,137.556L240.573,136.915L240.635,136.303L240.723,135.720L240.836,135.164L240.975,134.636L241.141,134.134L241.335,133.658L241.557,133.207L241.809,132.780L242.092,132.379L242.407,132.002L242.756,131.651L242.756,131.651L242.328,131.909L241.918,132.207L241.528,132.545L241.159,132.924L240.812,133.343L240.488,133.803L240.189,134.302L239.915,134.840L239.667,135.416L239.446,136.029L239.251,136.679L239.083,137.365L238.942,138.086L238.830,138.826Z M235.402,134.862L234.445,134.816L233.504,134.811L232.601,134.848L231.736,134.929L230.911,135.052L230.125,135.218L229.381,135.426L228.680,135.675L228.021,135.965L227.408,136.295L226.839,136.663L226.316,137.067L225.839,137.506L225.406,137.978L225.406,137.978L225.935,137.629L226.488,137.328L227.063,137.074L227.662,136.866L228.284,136.701L228.930,136.578L229.602,136.497L230.300,136.455L231.026,136.453L231.780,136.491L232.564,136.567L233.378,136.682L234.223,136.835L235.120,137.031Z M234.311,130.985L234.249,130.092L234.221,129.254L234.225,128.452L234.263,127.685L234.334,126.952L234.438,126.252L234.577,125.584L234.751,124.947L234.961,124.340L235.208,123.763L235.495,123.215L235.821,122.695L236.190,122.205L236.602,121.744L236.602,121.744L236.085,122.094L235.593,122.493L235.129,122.940L234.694,123.437L234.288,123.983L233.915,124.577L233.575,125.219L233.269,125.908L232.997,126.642L232.761,127.421L232.561,128.245L232.397,129.111L232.269,130.020L232.177,130.950Z" fill="url(#g)" fill-rule="evenodd" /><path d="M380.812,238.736L380.812,236.350L380.812,233.965L380.812,231.579L380.812,229.193L380.812,226.808L380.812,224.422L380.768,222.301L380.640,220.181L380.441,218.060L380.180,215.940L379.867,213.819L379.513,211.698L379.129,209.578L378.723,207.457L378.307,205.337L377.892,203.216L377.486,201.095L377.101,198.975L376.747,196.854L376.435,194.734L376.174,192.613L375.974,190.493L375.847,188.372L375.802,186.272L375.820,184.009L375.874,181.809L375.962,179.651L376.086,177.535L376.245,175.461L376.439,173.430L376.668,171.441L376.931,169.495L377.228,167.591L377.560,165.729L377.925,163.910L378.324,162.133L378.756,160.398L379.222,158.705L379.720,157.055L380.251,155.446L380.815,153.880L381.410,152.354L382.038,150.870L382.697,149.427L383.388,148.024L384.145,146.599L385.168,145.132L386.478,143.826L388.043,142.663L389.826,141.626L391.790,140.697L393.896,139.857L396.106,139.087L398.377,138.364L400.670,137.666L402.940,136.968L405.146,136.245L407.243,135.471L409.187,134.617L410.934,133.656L412.439,132.559L413.659,131.294L414.620,129.875L415.524,128.421L416.384,126.939L417.202,125.430L417.976,123.892L418.707,122.326L419.396,120.729L420.042,119.103L420.648,117.447L421.212,115.761L421.738,114.044L422.224,112.297L422.674,110.519L423.088,108.712L423.467,106.874L423.813,105.008L424.128,103.113L424.413,101.189L424.670,99.238L424.901,97.260L425.108,95.256L425.292,93.227L425.455,91.173L425.600,89.096L425.728,86.996L425.840,84.873L425.938,82.730L426.025,80.566L426.100,78.383L426.167,76.181L426.226,73.961L426.277,71.724L426.277,71.724L424.148,72.384L422.067,73.091L420.036,73.844L418.052,74.641L416.116,75.481L414.226,76.363L412.381,77.285L410.580,78.247L408.823,79.245L407.107,80.279L405.431,81.348L403.795,82.449L402.197,83.582L400.635,84.745L399.109,85.936L397.616,87.155L396.157,88.399L394.730,89.669L393.333,90.962L391.967,92.279L390.629,93.617L389.320,94.976L388.039,96.355L386.785,97.754L385.558,99.172L384.358,100.609L383.185,102.064L382.039,103.537L380.920,105.028L379.828,106.537L378.765,108.064L377.743,109.615L376.926,111.291L376.346,113.105L375.972,115.037L375.776,117.067L375.728,119.177L375.797,121.345L375.952,123.553L376.160,125.781L376.386,128.009L376.596,130.217L376.751,132.385L376.813,134.492L376.742,136.519L376.494,138.443L376.027,140.244L375.297,141.897L374.467,143.463L373.645,145.131L372.866,146.837L372.128,148.581L371.432,150.362L370.778,152.181L370.166,154.037L369.594,155.929L369.064,157.858L368.574,159.824L368.124,161.826L367.715,163.865L367.345,165.940L367.015,168.051L366.725,170.199L366.474,172.383L366.262,174.603L366.089,176.860L365.955,179.153L365.859,181.482L365.802,183.849L365.783,186.231L365.738,188.372L365.611,190.493L365.412,192.613L365.150,194.734L364.838,196.854L364.484,198.975L364.099,201.095L363.693,203.216L363.278,205.337L362.862,207.457L362.456,209.578L362.072,211.698L361.718,213.819L361.405,215.940L361.144,218.060L360.945,220.181L360.817,222.301L360.773,224.422L360.773,226.808L360.773,229.193L360.773,231.579L360.773,233.965L360.773,236.350L360.773,238.736Z M381.408,141.092L382.423,139.607L383.391,138.098L384.375,136.599L385.379,135.111L386.403,133.636L387.444,132.172L388.500,130.717L389.565,129.269L390.634,127.825L391.702,126.382L392.675,124.883L393.641,123.382L394.606,121.879L395.571,120.376L396.534,118.873L397.496,117.368L398.458,115.864L399.420,114.359L400.381,112.853L401.342,111.347L402.302,109.839L403.262,108.332L404.222,106.823L405.182,105.314L406.142,103.803L407.087,102.282L407.999,100.738L408.909,99.190L409.817,97.641L410.726,96.089L411.635,94.536L412.546,92.982L413.459,91.428L414.376,89.874L415.297,88.322L416.224,86.771L417.158,85.223L418.100,83.678L419.051,82.138L420.011,80.602L420.979,79.070L421.915,77.512L421.915,77.512L420.696,78.861L419.522,80.244L418.350,81.628L417.179,83.013L416.011,84.400L414.846,85.789L413.685,87.182L412.529,88.578L411.380,89.979L410.238,91.386L409.104,92.799L407.981,94.218L406.867,95.645L405.765,97.079L404.674,98.522L403.597,99.973L402.563,101.453L401.556,102.950L400.559,104.454L399.574,105.964L398.600,107.481L397.637,109.004L396.685,110.534L395.745,112.071L394.816,113.614L393.899,115.163L392.993,116.718L392.098,118.280L391.216,119.849L390.345,121.423L389.487,123.004L388.647,124.595L387.912,126.246L387.189,127.902L386.474,129.561L385.760,131.218L385.042,132.872L384.318,134.520L383.585,136.162L382.843,137.798L382.097,139.430L381.408,141.092Z M388.909,132.059L390.012,131.599L391.058,131.205L392.073,130.867L393.059,130.587L394.016,130.363L394.945,130.196L395.848,130.086L396.727,130.033L397.583,130.039L398.418,130.105L399.233,130.232L400.029,130.422L400.807,130.678L401.565,131.001L401.565,131.001L400.901,130.498L400.188,130.048L399.424,129.652L398.610,129.314L397.747,129.036L396.837,128.818L395.880,128.663L394.879,128.571L393.835,128.542L392.750,128.577L391.624,128.676L390.459,128.839L389.256,129.066L388.042,129.348Z M393.080,119.687L392.604,117.948L392.068,116.270L391.480,114.684L390.839,113.192L390.145,111.794L389.400,110.492L388.605,109.286L387.760,108.179L386.868,107.172L385.931,106.264L384.952,105.457L383.932,104.750L382.874,104.143L381.780,103.634L381.780,103.634L382.748,104.338L383.648,105.117L384.483,105.970L385.254,106.897L385.964,107.895L386.615,108.968L387.209,110.114L387.749,111.335L388.236,112.632L388.670,114.008L389.052,115.462L389.384,116.997L389.665,118.612L389.902,120.340Z M401.288,112.610L402.905,112.051L404.444,111.581L405.934,111.191L407.377,110.881L408.773,110.651L410.124,110.501L411.432,110.432L412.699,110.444L413.926,110.538L415.116,110.716L416.268,110.980L417.386,111.332L418.468,111.774L419.514,112.310L419.514,112.310L418.585,111.574L417.585,110.914L416.515,110.330L415.375,109.826L414.165,109.404L412.887,109.066L411.542,108.814L410.133,108.647L408.661,108.568L407.128,108.577L405.535,108.673L403.883,108.857L402.175,109.128L400.439,109.478Z M405.734,100.072L405.371,98.529L404.952,97.034L404.484,95.619L403.965,94.284L403.397,93.031L402.780,91.860L402.115,90.774L401.404,89.773L400.647,88.859L399.848,88.032L399.009,87.294L398.132,86.644L397.219,86.081L396.273,85.604L396.273,85.604L397.085,86.270L397.832,86.998L398.518,87.786L399.143,88.634L399.711,89.542L400.224,90.509L400.684,91.538L401.093,92.628L401.452,93.783L401.762,95.002L402.024,96.287L402.238,97.640L402.405,99.061L402.529,100.582Z" fill="url(#g)" fill-rule="evenodd" /><path d="M190.437,372.333L190.437,374.718L190.437,377.104L190.437,379.490L190.437,381.875L190.437,384.261L190.437,386.647L190.439,387.972L190.445,389.297L190.454,390.623L190.467,391.948L190.482,393.273L190.499,394.599L190.517,395.924L190.536,397.250L190.556,398.575L190.576,399.900L190.595,401.226L190.613,402.551L190.630,403.876L190.645,405.202L190.658,406.527L190.667,407.853L190.673,409.178L190.675,410.488L190.667,411.730L190.643,412.934L190.602,414.114L190.546,415.270L190.474,416.404L190.385,417.513L190.282,418.599L190.162,419.661L190.027,420.700L189.877,421.714L189.712,422.705L189.532,423.672L189.337,424.615L189.128,425.535L188.904,426.430L188.667,427.301L188.415,428.149L188.149,428.973L187.871,429.774L187.578,430.551L187.273,431.304L186.927,432.097L186.338,433.103L185.572,434.041L184.653,434.917L183.601,435.742L182.439,436.527L181.190,437.284L179.877,438.022L178.527,438.754L177.165,439.490L175.819,440.241L174.516,441.017L173.286,441.829L172.158,442.686L171.162,443.599L170.329,444.577L169.688,445.629L169.225,446.747L168.812,447.883L168.440,449.034L168.110,450.199L167.821,451.378L167.575,452.571L167.370,453.777L167.208,454.995L167.088,456.225L167.009,457.467L166.972,458.720L166.975,459.983L167.019,461.256L167.102,462.538L167.225,463.828L167.385,465.126L167.582,466.430L167.815,467.741L168.083,469.058L168.385,470.379L168.720,471.705L169.086,473.035L169.482,474.367L169.907,475.702L170.359,477.038L170.839,478.376L171.343,479.714L171.872,481.053L172.424,482.391L172.998,483.729L173.593,485.065L174.209,486.400L174.209,486.400L175.327,485.463L176.407,484.525L177.449,483.585L178.455,482.644L179.426,481.701L180.363,480.756L181.267,479.809L182.139,478.859L182.980,477.908L183.793,476.953L184.578,475.997L185.337,475.038L186.071,474.077L186.781,473.113L187.468,472.147L188.135,471.179L188.781,470.208L189.408,469.236L190.018,468.260L190.610,467.283L191.186,466.304L191.747,465.322L192.293,464.338L192.825,463.352L193.343,462.363L193.847,461.372L194.339,460.378L194.817,459.382L195.282,458.382L195.734,457.379L196.172,456.372L196.589,455.358L196.878,454.299L197.023,453.185L197.044,452.023L196.961,450.819L196.794,449.578L196.564,448.308L196.291,447.015L195.998,445.709L195.706,444.396L195.438,443.087L195.216,441.791L195.066,440.518L195.012,439.281L195.078,438.090L195.291,436.960L195.681,435.898L196.071,435.000L196.468,434.021L196.843,433.023L197.197,432.006L197.531,430.970L197.844,429.915L198.137,428.842L198.410,427.750L198.663,426.639L198.896,425.510L199.110,424.362L199.304,423.196L199.479,422.011L199.636,420.808L199.773,419.586L199.892,418.345L199.992,417.085L200.073,415.807L200.137,414.509L200.182,413.193L200.209,411.858L200.218,410.519L200.220,409.178L200.226,407.853L200.236,406.527L200.248,405.202L200.263,403.876L200.280,402.551L200.298,401.226L200.317,399.900L200.337,398.575L200.357,397.250L200.376,395.924L200.395,394.599L200.412,393.273L200.426,391.948L200.439,390.623L200.448,389.297L200.454,387.972L200.457,386.647L200.457,384.261L200.457,381.875L200.457,379.490L200.457,377.104L200.457,374.718L200.457,372.333Z M190.400,436.097L189.804,437.087L189.270,438.104L188.739,439.122L188.204,440.141L187.666,441.159L187.124,442.177L186.582,443.195L186.041,444.216L185.506,445.240L184.979,446.269L184.465,447.304L183.969,448.346L183.494,449.398L183.045,450.460L182.622,451.532L182.213,452.610L181.816,453.692L181.431,454.779L181.059,455.871L180.700,456.968L180.353,458.069L180.019,459.174L179.696,460.284L179.386,461.397L179.087,462.514L178.799,463.635L178.522,464.759L178.255,465.887L177.998,467.017L177.750,468.150L177.511,469.285L177.280,470.422L177.056,471.562L176.839,472.703L176.627,473.845L176.419,474.989L176.216,476.133L176.015,477.278L175.816,478.424L175.619,479.570L175.424,480.717L175.266,481.873L175.266,481.873L175.657,480.774L176.020,479.671L176.389,478.570L176.765,477.472L177.147,476.377L177.534,475.286L177.926,474.197L178.322,473.110L178.721,472.026L179.121,470.944L179.523,469.863L179.925,468.784L180.327,467.706L180.728,466.629L181.128,465.553L181.526,464.477L181.921,463.402L182.313,462.327L182.702,461.251L183.088,460.175L183.470,459.099L183.848,458.022L184.222,456.945L184.592,455.866L184.957,454.786L185.318,453.705L185.676,452.623L186.028,451.539L186.362,450.448L186.679,449.351L186.982,448.248L187.277,447.142L187.567,446.032L187.857,444.922L188.149,443.812L188.449,442.704L188.757,441.598L189.077,440.496L189.410,439.399L189.753,438.305L190.103,437.213L190.400,436.097Z M186.150,442.279L185.410,442.722L184.703,443.112L184.012,443.458L183.337,443.761L182.677,444.020L182.030,444.236L181.396,444.408L180.773,444.536L180.161,444.621L179.557,444.660L178.961,444.654L178.373,444.601L177.791,444.498L177.215,444.346L177.215,444.346L177.742,444.637L178.298,444.885L178.885,445.088L179.502,445.245L180.147,445.355L180.820,445.416L181.520,445.428L182.245,445.390L182.994,445.303L183.766,445.165L184.560,444.977L185.376,444.740L186.212,444.454L187.051,444.126Z M184.683,450.851L185.247,451.954L185.846,453.012L186.468,454.001L187.114,454.919L187.783,455.765L188.474,456.540L189.185,457.240L189.916,457.867L190.665,458.419L191.429,458.895L192.207,459.296L192.996,459.623L193.795,459.876L194.602,460.057L194.602,460.057L193.871,459.689L193.179,459.263L192.524,458.780L191.906,458.243L191.321,457.651L190.768,457.005L190.244,456.304L189.749,455.548L189.281,454.736L188.838,453.866L188.419,452.938L188.025,451.951L187.654,450.905L187.297,449.773Z M180.553,455.931L179.586,456.579L178.662,457.153L177.756,457.667L176.869,458.121L175.997,458.516L175.142,458.851L174.300,459.127L173.471,459.344L172.652,459.500L171.842,459.595L171.040,459.628L170.244,459.597L169.453,459.500L168.667,459.334L168.667,459.334L169.396,459.690L170.163,459.985L170.967,460.218L171.808,460.386L172.685,460.489L173.595,460.525L174.538,460.492L175.512,460.391L176.514,460.221L177.544,459.982L178.600,459.674L179.681,459.298L180.787,458.854L181.894,458.355Z" fill="url(#g)" fill-rule="evenodd" /><path d="M300.654,372.333L300.654,374.718L300.654,377.104L300.654,379.490L300.654,381.875L300.654,384.261L300.654,386.647L300.656,387.972L300.662,389.297L300.672,390.623L300.684,391.948L300.699,393.273L300.716,394.599L300.734,395.924L300.754,397.250L300.773,398.575L300.793,399.900L300.813,401.226L300.831,402.551L300.848,403.876L300.863,405.202L300.875,406.527L300.885,407.853L300.891,409.178L300.893,410.519L300.902,411.735L300.929,412.949L300.974,414.147L301.037,415.328L301.119,416.492L301.219,417.639L301.338,418.769L301.476,419.883L301.633,420.980L301.809,422.060L302.005,423.124L302.220,424.171L302.454,425.202L302.709,426.216L302.984,427.213L303.280,428.193L303.596,429.157L303.933,430.103L304.291,431.032L304.670,431.944L305.071,432.837L305.461,433.647L305.788,434.631L305.950,435.685L305.969,436.803L305.862,437.974L305.649,439.189L305.351,440.435L304.988,441.702L304.584,442.980L304.162,444.258L303.745,445.524L303.359,446.770L303.029,447.985L302.781,449.158L302.643,450.280L302.641,451.343L302.803,452.337L303.116,453.269L303.466,454.187L303.846,455.094L304.257,455.990L304.698,456.876L305.171,457.752L305.674,458.618L306.208,459.475L306.774,460.324L307.370,461.165L307.997,461.998L308.653,462.825L309.339,463.646L310.054,464.462L310.797,465.273L311.568,466.079L312.365,466.883L313.188,467.684L314.035,468.483L314.906,469.281L315.800,470.078L316.715,470.875L317.650,471.673L318.604,472.473L319.577,473.274L320.566,474.078L321.571,474.885L322.591,475.696L323.624,476.511L324.671,477.330L325.729,478.154L326.799,478.984L326.799,478.984L327.339,477.748L327.836,476.518L328.289,475.292L328.700,474.073L329.071,472.859L329.401,471.651L329.693,470.449L329.947,469.253L330.165,468.064L330.348,466.880L330.496,465.703L330.613,464.533L330.698,463.368L330.752,462.210L330.778,461.058L330.776,459.913L330.748,458.773L330.693,457.640L330.614,456.513L330.511,455.392L330.385,454.277L330.237,453.168L330.067,452.065L329.875,450.969L329.663,449.879L329.430,448.795L329.178,447.717L328.904,446.647L328.611,445.583L328.297,444.527L327.963,443.478L327.601,442.440L327.119,441.451L326.500,440.519L325.763,439.637L324.927,438.801L324.009,438.004L323.027,437.240L322.001,436.501L320.948,435.779L319.890,435.067L318.845,434.356L317.835,433.635L316.880,432.895L316.002,432.124L315.224,431.311L314.568,430.443L314.061,429.512L313.723,428.813L313.430,428.159L313.149,427.484L312.881,426.787L312.625,426.069L312.382,425.330L312.153,424.569L311.937,423.785L311.735,422.980L311.546,422.153L311.372,421.303L311.212,420.432L311.066,419.538L310.935,418.622L310.819,417.684L310.718,416.724L310.632,415.742L310.562,414.738L310.507,413.712L310.467,412.664L310.443,411.595L310.435,410.487L310.438,409.178L310.444,407.853L310.453,406.527L310.465,405.202L310.480,403.876L310.497,402.551L310.516,401.226L310.535,399.900L310.555,398.575L310.574,397.250L310.594,395.924L310.612,394.599L310.629,393.273L310.644,391.948L310.656,390.623L310.666,389.297L310.672,387.972L310.674,386.647L310.674,384.261L310.674,381.875L310.674,379.490L310.674,377.104L310.674,374.718L310.674,372.333Z M310.660,433.464L310.958,434.476L311.310,435.463L311.657,436.451L311.994,437.442L312.321,438.438L312.637,439.437L312.945,440.438L313.246,441.442L313.545,442.446L313.844,443.449L314.147,444.450L314.457,445.446L314.779,446.438L315.116,447.423L315.469,448.402L315.826,449.379L316.187,450.355L316.551,451.330L316.919,452.304L317.290,453.277L317.666,454.249L318.044,455.221L318.426,456.193L318.811,457.164L319.198,458.135L319.588,459.107L319.980,460.078L320.374,461.051L320.768,462.024L321.164,462.999L321.559,463.975L321.954,464.952L322.347,465.931L322.739,466.913L323.127,467.897L323.512,468.883L323.893,469.873L324.268,470.865L324.638,471.861L325.000,472.860L325.357,473.862L325.740,474.859L325.740,474.859L325.574,473.804L325.373,472.758L325.169,471.712L324.964,470.668L324.756,469.624L324.546,468.580L324.332,467.538L324.113,466.497L323.889,465.458L323.659,464.421L323.422,463.385L323.177,462.352L322.924,461.322L322.662,460.295L322.391,459.270L322.110,458.249L321.818,457.231L321.517,456.218L321.204,455.208L320.880,454.202L320.544,453.201L320.197,452.204L319.838,451.212L319.468,450.224L319.085,449.242L318.691,448.265L318.284,447.292L317.866,446.326L317.423,445.369L316.957,444.423L316.471,443.486L315.970,442.557L315.456,441.635L314.934,440.717L314.407,439.803L313.877,438.891L313.348,437.980L312.821,437.070L312.297,436.159L311.774,435.249L311.247,434.341L310.660,433.464Z M312.043,440.114L311.843,440.906L311.631,441.640L311.400,442.333L311.151,442.988L310.882,443.603L310.593,444.180L310.284,444.720L309.953,445.222L309.600,445.688L309.222,446.119L308.819,446.513L308.389,446.871L307.931,447.192L307.444,447.475L307.444,447.475L307.991,447.317L308.529,447.111L309.058,446.854L309.576,446.547L310.081,446.189L310.573,445.779L311.050,445.319L311.510,444.809L311.953,444.249L312.377,443.641L312.784,442.984L313.171,442.279L313.539,441.528L313.882,440.748Z M316.512,446.700L317.594,447.110L318.671,447.468L319.721,447.763L320.744,447.995L321.737,448.162L322.700,448.266L323.632,448.306L324.531,448.283L325.394,448.196L326.222,448.047L327.012,447.838L327.763,447.570L328.475,447.245L329.148,446.865L329.148,446.865L328.411,447.068L327.664,447.206L326.909,447.282L326.144,447.297L325.368,447.253L324.581,447.152L323.779,446.994L322.963,446.781L322.130,446.511L321.278,446.186L320.407,445.806L319.516,445.369L318.604,444.876L317.648,444.316Z M316.577,452.609L316.253,453.645L315.916,454.603L315.558,455.507L315.177,456.356L314.774,457.153L314.348,457.897L313.897,458.590L313.420,459.232L312.916,459.825L312.382,460.367L311.818,460.860L311.220,461.303L310.588,461.695L309.920,462.034L309.920,462.034L310.658,461.866L311.388,461.632L312.109,461.332L312.820,460.963L313.518,460.525L314.201,460.019L314.868,459.444L315.517,458.801L316.147,458.091L316.756,457.315L317.345,456.474L317.912,455.568L318.456,454.599L318.970,453.589Z" fill="url(#g)" fill-rule="evenodd" /></svg>